<svg xmlns="http://www.w3.org/2000/svg" xmlns:xlink="http://www.w3.org/1999/xlink" width="1080" zoomAndPan="magnify" viewBox="0 0 810 809.999993" height="1080" preserveAspectRatio="xMidYMid meet" version="1.0"><defs><g/><clipPath id="b93561f207"><path d="M 81 81 L 729 81 L 729 729 L 81 729 Z M 81 81 " clip-rule="nonzero"/></clipPath><clipPath id="6d9c8bf3f1"><path d="M 105 81 L 705 81 C 711.363281 81 717.46875 83.527344 721.96875 88.03125 C 726.472656 92.53125 729 98.636719 729 105 L 729 705 C 729 711.363281 726.472656 717.46875 721.96875 721.96875 C 717.46875 726.472656 711.363281 729 705 729 L 105 729 C 98.636719 729 92.53125 726.472656 88.03125 721.96875 C 83.527344 717.46875 81 711.363281 81 705 L 81 105 C 81 98.636719 83.527344 92.53125 88.03125 88.03125 C 92.53125 83.527344 98.636719 81 105 81 " clip-rule="nonzero"/></clipPath></defs><rect x="-81" width="972" fill="#ffffff" y="-80.999999" height="971.999992" fill-opacity="1"/><rect x="-81" width="972" fill="#ffffff" y="-80.999999" height="971.999992" fill-opacity="1"/><rect x="-81" width="972" fill="#3a4f7a" y="-80.999999" height="971.999992" fill-opacity="1"/><g clip-path="url(#b93561f207)"><g clip-path="url(#6d9c8bf3f1)"><path stroke-linecap="butt" transform="matrix(0.75, 0, 0, 0.75, 80.999999, 81.000016)" fill="none" stroke-linejoin="miter" d="M 32.000002 -0.0000212333 L 832.000043 -0.0000212333 C 840.484418 -0.0000212333 848.625043 3.369771 854.625044 9.374979 C 860.630252 15.37498 864.000044 23.515605 864.000044 31.99998 L 864.000044 832.000021 C 864.000044 840.484396 860.630252 848.625021 854.625044 854.625022 C 848.625043 860.63023 840.484418 864.000022 832.000043 864.000022 L 32.000002 864.000022 C 23.515627 864.000022 15.375002 860.63023 9.375001 854.625022 C 3.369793 848.625021 0.000000766667 840.484396 0.000000766667 832.000021 L 0.000000766667 31.99998 C 0.000000766667 23.515605 3.369793 15.37498 9.375001 9.374979 C 15.375002 3.369771 23.515627 -0.0000212333 32.000002 -0.0000212333 " stroke="#ffbcd1" stroke-width="158" stroke-opacity="1" stroke-miterlimit="4"/></g></g><g fill="#ffffff" fill-opacity="1"><g transform="translate(169.228198, 524.15701)"><g><path d="M 12.671875 -119.515625 C 12.671875 -142.796875 18.09375 -163.679688 28.9375 -182.171875 C 39.78125 -200.671875 54.503906 -215.113281 73.109375 -225.5 C 91.710938 -235.882812 112.085938 -241.078125 134.234375 -241.078125 C 159.578125 -241.078125 182.117188 -234.851562 201.859375 -222.40625 C 221.609375 -209.96875 235.9375 -192.332031 244.84375 -169.5 L 197.921875 -169.5 C 191.765625 -182.0625 183.207031 -191.421875 172.25 -197.578125 C 161.289062 -203.742188 148.617188 -206.828125 134.234375 -206.828125 C 118.484375 -206.828125 104.441406 -203.285156 92.109375 -196.203125 C 79.785156 -189.128906 70.140625 -178.972656 63.171875 -165.734375 C 56.210938 -152.492188 52.734375 -137.085938 52.734375 -119.515625 C 52.734375 -101.929688 56.210938 -86.519531 63.171875 -73.28125 C 70.140625 -60.039062 79.785156 -49.820312 92.109375 -42.625 C 104.441406 -35.4375 118.484375 -31.84375 134.234375 -31.84375 C 148.617188 -31.84375 161.289062 -34.925781 172.25 -41.09375 C 183.207031 -47.257812 191.765625 -56.617188 197.921875 -69.171875 L 244.84375 -69.171875 C 235.9375 -46.335938 221.609375 -28.757812 201.859375 -16.4375 C 182.117188 -4.113281 159.578125 2.046875 134.234375 2.046875 C 111.859375 2.046875 91.425781 -3.144531 72.9375 -13.53125 C 54.445312 -23.914062 39.78125 -38.351562 28.9375 -56.84375 C 18.09375 -75.332031 12.671875 -96.222656 12.671875 -119.515625 Z M 12.671875 -119.515625 "/></g></g></g><g fill="#ffbcd1" fill-opacity="1"><g transform="translate(433.931625, 524.15701)"><g><path d="M 104.09375 2.390625 C 88.113281 2.390625 73.734375 -0.398438 60.953125 -5.984375 C 48.171875 -11.578125 38.125 -19.507812 30.8125 -29.78125 C 23.507812 -40.0625 19.859375 -52.050781 19.859375 -65.75 L 61.640625 -65.75 C 62.554688 -55.476562 66.609375 -47.03125 73.796875 -40.40625 C 80.984375 -33.789062 91.082031 -30.484375 104.09375 -30.484375 C 117.570312 -30.484375 128.078125 -33.734375 135.609375 -40.234375 C 143.140625 -46.742188 146.90625 -55.132812 146.90625 -65.40625 C 146.90625 -73.394531 144.5625 -79.898438 139.875 -84.921875 C 135.195312 -89.941406 129.378906 -93.820312 122.421875 -96.5625 C 115.460938 -99.300781 105.816406 -102.269531 93.484375 -105.46875 C 77.960938 -109.582031 65.347656 -113.75 55.640625 -117.96875 C 45.941406 -122.195312 37.664062 -128.757812 30.8125 -137.65625 C 23.96875 -146.5625 20.546875 -158.429688 20.546875 -173.265625 C 20.546875 -186.960938 23.96875 -198.945312 30.8125 -209.21875 C 37.664062 -219.5 47.253906 -227.378906 59.578125 -232.859375 C 71.910156 -238.335938 86.179688 -241.078125 102.390625 -241.078125 C 125.441406 -241.078125 144.332031 -235.3125 159.0625 -223.78125 C 173.789062 -212.25 181.953125 -196.441406 183.546875 -176.359375 L 140.40625 -176.359375 C 139.71875 -185.035156 135.601562 -192.453125 128.0625 -198.609375 C 120.53125 -204.773438 110.601562 -207.859375 98.28125 -207.859375 C 87.09375 -207.859375 77.957031 -205.003906 70.875 -199.296875 C 63.800781 -193.585938 60.265625 -185.367188 60.265625 -174.640625 C 60.265625 -167.335938 62.488281 -161.34375 66.9375 -156.65625 C 71.394531 -151.976562 77.046875 -148.269531 83.890625 -145.53125 C 90.742188 -142.789062 100.109375 -139.820312 111.984375 -136.625 C 127.734375 -132.289062 140.570312 -127.953125 150.5 -123.609375 C 160.425781 -119.273438 168.867188 -112.597656 175.828125 -103.578125 C 182.796875 -94.566406 186.28125 -82.523438 186.28125 -67.453125 C 186.28125 -55.359375 183.023438 -43.945312 176.515625 -33.21875 C 170.015625 -22.488281 160.539062 -13.867188 148.09375 -7.359375 C 135.65625 -0.859375 120.988281 2.390625 104.09375 2.390625 Z M 104.09375 2.390625 "/></g></g></g></svg>